<svg xmlns="http://www.w3.org/2000/svg" width="57px" height="31px"
     viewBox="0 0 57 31" enable-background="new 0 0 57 31" xml:space="preserve">
    <linearGradient id="qodef-gradient-logo" gradientUnits="userSpaceOnUse" x1="0.5999" y1="15.5" x2="56.4001" y2="15.5">
	    <stop offset="0.3901" stop-color="#A4A2A2"/>
        <stop offset="1" stop-color="#FFFFFF"/>
    </linearGradient>
    <path d="M54.5,7.5c-1.3-2.3-3-4-5.2-5.2C47.1,1,44.7,0.4,42,0.4c-2.7,0-5.1,0.6-7.3,1.8c-2.2,1.2-3.9,3-5.2,5.2
	c-0.4,0.7-0.8,1.5-1,2.3c-0.3-0.8-0.6-1.6-1-2.3c-1.3-2.3-3-4-5.2-5.2C20.1,1,17.7,0.4,15,0.4c-2.7,0-5.1,0.6-7.3,1.8
	c-2.2,1.2-3.9,3-5.2,5.2c-1.3,2.3-1.9,4.9-1.9,8s0.6,5.7,1.9,8c1.3,2.3,3,4,5.2,5.2c2.2,1.2,4.6,1.9,7.3,1.9c2.7,0,5.1-0.6,7.3-1.9
	c2.2-1.2,3.9-3,5.2-5.2c0.4-0.7,0.8-1.5,1-2.3c0.3,0.8,0.6,1.6,1,2.3c1.3,2.3,3,4,5.2,5.2c2.2,1.2,4.6,1.9,7.3,1.9
	c2.7,0,5.1-0.6,7.3-1.9c2.2-1.2,3.9-3,5.2-5.2c1.3-2.3,1.9-4.9,1.9-8S55.8,9.8,54.5,7.5z M24.4,21.9c-1,1.7-2.3,3.1-3.9,3.9
	c-1.6,0.9-3.5,1.3-5.5,1.3c-2,0-3.8-0.4-5.5-1.3c-1.6-0.9-2.9-2.2-3.9-3.9c-1-1.7-1.4-3.9-1.4-6.4c0-2.5,0.5-4.7,1.4-6.4
	c1-1.7,2.3-3,3.9-3.9C11.2,4.2,13,3.8,15,3.8c2,0,3.9,0.5,5.5,1.4c1.6,0.9,2.9,2.2,3.9,3.9c1,1.7,1.4,3.9,1.4,6.4
	C25.8,18.1,25.3,20.2,24.4,21.9z M51.4,21.9c-1,1.7-2.3,3.1-3.9,3.9c-1.6,0.9-3.5,1.3-5.5,1.3c-2,0-3.8-0.4-5.5-1.3
	c-1.6-0.9-2.9-2.2-3.9-3.9c-1-1.7-1.4-3.9-1.4-6.4c0-2.5,0.5-4.7,1.4-6.4c1-1.7,2.3-3,3.9-3.9C38.2,4.2,40,3.8,42,3.8
	c2,0,3.9,0.5,5.5,1.4s2.9,2.2,3.9,3.9c1,1.7,1.4,3.9,1.4,6.4C52.8,18.1,52.3,20.2,51.4,21.9z" fill="url(#qodef-gradient-logo)"/>
</svg>
